<svg width="535" height="767" viewBox="0 0 535 767" fill="none" xmlns="http://www.w3.org/2000/svg">
<path fill-rule="evenodd" clip-rule="evenodd" d="M235.702 667.106C290.766 722.17 380.042 722.17 435.106 667.106C490.17 612.042 490.17 522.766 435.106 467.702C380.042 412.638 290.766 412.638 235.702 467.702C180.638 522.766 180.638 612.042 235.702 667.106ZM268.936 633.872C305.645 670.581 365.163 670.581 401.872 633.872C438.581 597.163 438.581 537.645 401.872 500.936C365.163 464.227 305.645 464.227 268.936 500.936C232.227 537.645 232.227 597.163 268.936 633.872Z" fill="url(#paint0_linear_36_102)" fill-opacity="0.5"/>
<path fill-rule="evenodd" clip-rule="evenodd" d="M97 194C150.572 194 194 150.572 194 97C194 43.4284 150.572 0 97 0C43.4284 0 0 43.4284 0 97C0 150.572 43.4284 194 97 194ZM97 161.667C132.714 161.667 161.667 132.714 161.667 97C161.667 61.2856 132.714 32.3333 97 32.3333C61.2856 32.3333 32.3333 61.2856 32.3333 97C32.3333 132.714 61.2856 161.667 97 161.667Z" fill="url(#paint1_linear_36_102)" fill-opacity="0.5"/>
<defs>
<linearGradient id="paint0_linear_36_102" x1="353.77" y1="430.095" x2="310.479" y2="706.025" gradientUnits="userSpaceOnUse">
<stop stop-color="#FFE600"/>
<stop offset="0.541667" stop-color="#488AEA"/>
<stop offset="1" stop-color="#026AFF"/>
</linearGradient>
<linearGradient id="paint1_linear_36_102" x1="39.1404" y1="21.2719" x2="152.307" y2="176.557" gradientUnits="userSpaceOnUse">
<stop stop-color="#FFE600"/>
<stop offset="0.541667" stop-color="#488AEA"/>
<stop offset="1" stop-color="#026AFF"/>
</linearGradient>
</defs>
</svg>
