<svg width="538" height="319" viewBox="0 0 538 319" fill="none" xmlns="http://www.w3.org/2000/svg">
<path fill-rule="evenodd" clip-rule="evenodd" d="M269 282C346.872 282 410 218.872 410 141C410 63.1278 346.872 0 269 0C191.128 0 128 63.1278 128 141C128 218.872 191.128 282 269 282ZM269 235C320.915 235 363 192.915 363 141C363 89.0853 320.915 47.0001 269 47.0001C217.085 47.0001 175 89.0853 175 141C175 192.915 217.085 235 269 235Z" fill="url(#paint0_linear_37_197)" fill-opacity="0.4"/>
<path fill-rule="evenodd" clip-rule="evenodd" d="M260.846 210.003C260.689 213.053 260.414 216.071 260.024 219.054L130.946 89.9765C133.929 89.5865 136.947 89.3108 139.997 89.154L260.846 210.003ZM120.308 91.8807C123.394 91.1766 126.527 90.5965 129.701 90.1461L259.854 220.299C259.403 223.473 258.823 226.606 258.119 229.692L120.308 91.8807ZM252.374 247.778C253.346 245.419 254.241 243.021 255.058 240.587L109.413 94.9423C106.979 95.7586 104.581 96.6541 102.222 97.6258L252.374 247.778ZM101.225 98.0423C98.6468 99.1331 96.1169 100.315 93.639 101.585L248.415 256.361C249.685 253.883 250.867 251.353 251.958 248.775L101.225 98.0423ZM258.789 181.447C257.881 176.88 256.703 172.41 255.271 168.055L181.945 94.7292C177.59 93.2974 173.12 92.1187 168.553 91.2105L258.789 181.447ZM166.805 90.8771C162.637 90.1155 158.391 89.5786 154.079 89.2794L260.721 195.921C260.421 191.609 259.884 187.363 259.123 183.195L166.805 90.8771ZM261 204C261 205.558 260.969 207.108 260.908 208.65L141.35 89.0923C142.892 89.031 144.442 89 146 89C148.205 89 150.396 89.0621 152.57 89.1845L260.815 197.43C260.938 199.604 261 201.795 261 204ZM257.851 230.839C257.148 233.779 256.333 236.676 255.408 239.524L110.476 94.5915C113.324 93.6675 116.221 92.8515 119.161 92.1486L257.851 230.839ZM244.693 144.935C248.647 151.527 251.959 158.549 254.543 165.913L184.087 95.457C191.451 98.0409 198.473 101.353 205.065 105.307L244.693 144.935ZM92.7074 102.067C90.2931 103.332 87.9293 104.68 85.6198 106.108L243.892 264.38C245.32 262.071 246.668 259.707 247.933 257.293L92.7074 102.067ZM243.349 265.251L84.7492 106.651C82.7409 107.917 80.7746 109.244 78.8527 110.629L239.371 271.147C240.756 269.225 242.083 267.259 243.349 265.251ZM238.776 271.966L78.0339 111.224C75.9022 112.788 73.8265 114.424 71.8102 116.128L233.872 278.19C235.576 276.174 237.212 274.098 238.776 271.966ZM208.851 107.679C222.187 116.399 233.601 127.813 242.321 141.149L208.851 107.679ZM233.221 278.953L71.0468 116.779C69.0555 118.492 67.1236 120.272 65.2544 122.115L227.885 284.746C229.728 282.876 231.508 280.944 233.221 278.953ZM227.18 285.455C225.531 287.098 223.832 288.692 222.086 290.234L59.7659 127.914C61.3077 126.168 62.9017 124.469 64.5455 122.82L227.18 285.455ZM215.181 295.872C217.289 294.282 219.34 292.622 221.331 290.894L59.1059 128.669C57.3781 130.66 55.7176 132.711 54.128 134.819L215.181 295.872ZM214.372 296.477L53.5231 135.628C51.9372 137.77 50.4239 139.968 48.9869 142.22L207.78 301.013C210.032 299.576 212.23 298.063 214.372 296.477ZM199.754 305.69C197.306 306.987 194.805 308.198 192.255 309.319L40.681 157.745C41.8023 155.195 43.0134 152.694 44.3104 150.246L199.754 305.69ZM200.675 305.196L44.8036 149.325C45.9517 147.204 47.1645 145.124 48.4393 143.087L206.913 301.561C204.876 302.836 202.796 304.048 200.675 305.196ZM191.269 309.747L40.2528 158.731C39.1256 161.36 38.0936 164.041 37.1611 166.767L183.233 312.839C185.96 311.906 188.64 310.874 191.269 309.747ZM182.175 313.195C179.666 314.026 177.119 314.772 174.538 315.431L34.5686 175.462C35.2278 172.881 35.9744 170.334 36.805 167.825L182.175 313.195ZM164.141 317.577C167.273 317.081 170.364 316.458 173.406 315.714L34.2858 176.594C33.5419 179.636 32.9191 182.727 32.4228 185.859L164.141 317.577ZM31.199 197.177C31.3983 193.771 31.7458 190.405 32.2352 187.085L162.915 317.765C159.595 318.254 156.229 318.602 152.823 318.801L31.199 197.177ZM31.1282 198.521L151.479 318.872C149.663 318.957 147.837 319 146 319C144.544 319 143.095 318.973 141.653 318.919L31.0806 208.347C31.027 206.905 31 205.456 31 204C31 202.163 31.0431 200.337 31.1282 198.521ZM31.145 209.826L140.174 318.855C135.97 318.645 131.825 318.21 127.751 317.56L32.4399 222.249C31.7904 218.175 31.3548 214.03 31.145 209.826ZM32.7237 223.947L126.053 317.276C121.026 316.397 116.111 315.192 111.331 313.682L36.318 238.669C34.8085 233.889 33.6028 228.974 32.7237 223.947ZM37.0034 240.769C39.3872 247.838 42.4395 254.599 46.085 260.978L89.0217 303.915C95.4006 307.561 102.162 310.613 109.231 312.997L37.0034 240.769ZM48.1644 264.472C57.5542 279.631 70.3689 292.446 85.5281 301.836L48.1644 264.472Z" fill="url(#paint1_linear_37_197)" fill-opacity="0.4"/>
<path d="M7.128 174V123.6H14.76L36.864 160.392H32.76L54.504 123.6H62.136L62.28 174H53.352L53.28 137.496H55.152L36.72 168.24H32.544L13.824 137.496H15.984V174H7.128ZM93.3041 174.504C89.0321 174.504 85.2881 173.664 82.0721 171.984C78.9041 170.256 76.4321 167.904 74.6561 164.928C72.9281 161.952 72.0641 158.568 72.0641 154.776C72.0641 150.936 72.9041 147.552 74.5841 144.624C76.3121 141.648 78.6641 139.32 81.6401 137.64C84.6641 135.96 88.0961 135.12 91.9361 135.12C95.6801 135.12 99.0161 135.936 101.944 137.568C104.872 139.2 107.176 141.504 108.856 144.48C110.536 147.456 111.376 150.96 111.376 154.992C111.376 155.376 111.352 155.808 111.304 156.288C111.304 156.768 111.28 157.224 111.232 157.656H79.1921V151.68H106.48L102.952 153.552C103 151.344 102.544 149.4 101.584 147.72C100.624 146.04 99.3041 144.72 97.6241 143.76C95.9921 142.8 94.0961 142.32 91.9361 142.32C89.7281 142.32 87.7841 142.8 86.1041 143.76C84.4721 144.72 83.1761 146.064 82.2161 147.792C81.3041 149.472 80.8481 151.464 80.8481 153.768V155.208C80.8481 157.512 81.3761 159.552 82.4321 161.328C83.4881 163.104 84.9761 164.472 86.8961 165.432C88.8161 166.392 91.0241 166.872 93.5201 166.872C95.6801 166.872 97.6241 166.536 99.3521 165.864C101.08 165.192 102.616 164.136 103.96 162.696L108.784 168.24C107.056 170.256 104.872 171.816 102.232 172.92C99.6401 173.976 96.6641 174.504 93.3041 174.504ZM142.532 174.504C139.412 174.504 136.556 173.784 133.964 172.344C131.42 170.904 129.38 168.744 127.844 165.864C126.356 162.936 125.612 159.24 125.612 154.776C125.612 150.264 126.332 146.568 127.772 143.688C129.26 140.808 131.276 138.672 133.82 137.28C136.364 135.84 139.268 135.12 142.532 135.12C146.324 135.12 149.66 135.936 152.54 137.568C155.468 139.2 157.772 141.48 159.452 144.408C161.18 147.336 162.044 150.792 162.044 154.776C162.044 158.76 161.18 162.24 159.452 165.216C157.772 168.144 155.468 170.424 152.54 172.056C149.66 173.688 146.324 174.504 142.532 174.504ZM121.22 187.968V135.552H129.788V144.624L129.5 154.848L130.22 165.072V187.968H121.22ZM141.524 166.8C143.684 166.8 145.604 166.32 147.284 165.36C149.012 164.4 150.38 163.008 151.388 161.184C152.396 159.36 152.9 157.224 152.9 154.776C152.9 152.28 152.396 150.144 151.388 148.368C150.38 146.544 149.012 145.152 147.284 144.192C145.604 143.232 143.684 142.752 141.524 142.752C139.364 142.752 137.42 143.232 135.692 144.192C133.964 145.152 132.596 146.544 131.588 148.368C130.58 150.144 130.076 152.28 130.076 154.776C130.076 157.224 130.58 159.36 131.588 161.184C132.596 163.008 133.964 164.4 135.692 165.36C137.42 166.32 139.364 166.8 141.524 166.8ZM188.137 174.504C184.201 174.504 180.697 173.664 177.625 171.984C174.553 170.256 172.129 167.904 170.353 164.928C168.577 161.952 167.689 158.568 167.689 154.776C167.689 150.936 168.577 147.552 170.353 144.624C172.129 141.648 174.553 139.32 177.625 137.64C180.697 135.96 184.201 135.12 188.137 135.12C192.121 135.12 195.649 135.96 198.721 137.64C201.841 139.32 204.265 141.624 205.993 144.552C207.769 147.48 208.657 150.888 208.657 154.776C208.657 158.568 207.769 161.952 205.993 164.928C204.265 167.904 201.841 170.256 198.721 171.984C195.649 173.664 192.121 174.504 188.137 174.504ZM188.137 166.8C190.345 166.8 192.313 166.32 194.041 165.36C195.769 164.4 197.113 163.008 198.073 161.184C199.081 159.36 199.585 157.224 199.585 154.776C199.585 152.28 199.081 150.144 198.073 148.368C197.113 146.544 195.769 145.152 194.041 144.192C192.313 143.232 190.369 142.752 188.209 142.752C186.001 142.752 184.033 143.232 182.305 144.192C180.625 145.152 179.281 146.544 178.273 148.368C177.265 150.144 176.761 152.28 176.761 154.776C176.761 157.224 177.265 159.36 178.273 161.184C179.281 163.008 180.625 164.4 182.305 165.36C184.033 166.32 185.977 166.8 188.137 166.8ZM217.548 174V135.552H254.412V174H245.484V141.096L247.572 143.184H224.46L226.548 141.096V174H217.548ZM287.868 174.504C284.748 174.504 281.892 173.784 279.3 172.344C276.756 170.904 274.716 168.744 273.18 165.864C271.692 162.936 270.948 159.24 270.948 154.776C270.948 150.264 271.668 146.568 273.108 143.688C274.596 140.808 276.612 138.672 279.156 137.28C281.7 135.84 284.604 135.12 287.868 135.12C291.66 135.12 294.996 135.936 297.876 137.568C300.804 139.2 303.108 141.48 304.788 144.408C306.516 147.336 307.38 150.792 307.38 154.776C307.38 158.76 306.516 162.24 304.788 165.216C303.108 168.144 300.804 170.424 297.876 172.056C294.996 173.688 291.66 174.504 287.868 174.504ZM266.556 187.968V135.552H275.124V144.624L274.836 154.848L275.556 165.072V187.968H266.556ZM286.86 166.8C289.02 166.8 290.94 166.32 292.62 165.36C294.348 164.4 295.716 163.008 296.724 161.184C297.732 159.36 298.236 157.224 298.236 154.776C298.236 152.28 297.732 150.144 296.724 148.368C295.716 146.544 294.348 145.152 292.62 144.192C290.94 143.232 289.02 142.752 286.86 142.752C284.7 142.752 282.756 143.232 281.028 144.192C279.3 145.152 277.932 146.544 276.924 148.368C275.916 150.144 275.412 152.28 275.412 154.776C275.412 157.224 275.916 159.36 276.924 161.184C277.932 163.008 279.3 164.4 281.028 165.36C282.756 166.32 284.7 166.8 286.86 166.8ZM316.337 174V135.552H325.337V160.896L346.577 135.552H354.785V174H345.785V148.656L324.617 174H316.337ZM391.3 174V160.896L392.596 162.408H381.076C375.796 162.408 371.644 161.304 368.62 159.096C365.644 156.84 364.156 153.6 364.156 149.376C364.156 144.864 365.74 141.432 368.908 139.08C372.124 136.728 376.396 135.552 381.724 135.552H399.364V174H391.3ZM363.652 174L374.02 159.312H383.236L373.3 174H363.652ZM391.3 158.016V140.736L392.596 143.112H382.012C379.228 143.112 377.068 143.64 375.532 144.696C374.044 145.704 373.3 147.36 373.3 149.664C373.3 153.984 376.108 156.144 381.724 156.144H392.596L391.3 158.016ZM419.462 174V141.024L421.55 143.184H405.926V135.552H441.926V143.184H426.374L428.462 141.024V174H419.462ZM448.454 174V135.552H457.454V160.896L478.694 135.552H486.902V174H477.902V148.656L456.734 174H448.454ZM523.417 174V160.896L524.713 162.408H513.193C507.913 162.408 503.761 161.304 500.737 159.096C497.761 156.84 496.273 153.6 496.273 149.376C496.273 144.864 497.857 141.432 501.025 139.08C504.241 136.728 508.513 135.552 513.841 135.552H531.481V174H523.417ZM495.769 174L506.137 159.312H515.353L505.417 174H495.769ZM523.417 158.016V140.736L524.713 143.112H514.129C511.345 143.112 509.185 143.64 507.649 144.696C506.161 145.704 505.417 147.36 505.417 149.664C505.417 153.984 508.225 156.144 513.841 156.144H524.713L523.417 158.016Z" fill="black"/>
<defs>
<linearGradient id="paint0_linear_37_197" x1="184.895" y1="30.921" x2="349.395" y2="256.645" gradientUnits="userSpaceOnUse">
<stop stop-color="#ED7B50"/>
<stop offset="0.541667" stop-color="#488AEA"/>
<stop offset="1" stop-color="#2C2C2C"/>
</linearGradient>
<linearGradient id="paint1_linear_37_197" x1="77.4035" y1="114.219" x2="211.57" y2="298.32" gradientUnits="userSpaceOnUse">
<stop stop-color="#ED7B50"/>
<stop offset="0.541667" stop-color="#488AEA"/>
<stop offset="1" stop-color="#2C2C2C"/>
</linearGradient>
</defs>
</svg>
