<svg width="70" height="72" viewBox="0 0 70 72" fill="none" xmlns="http://www.w3.org/2000/svg">
<ellipse cx="34.8052" cy="36.3903" rx="34.8052" ry="35.6098" fill="#E5E5E5"/>
<path d="M51.8705 45.4979C51.8705 45.3501 51.726 45.3501 51.726 45.2022C51.1481 44.0197 49.8477 42.5415 48.1139 40.9154C47.2471 40.1763 46.8136 39.585 46.5246 39.2894C46.0912 38.6981 46.0912 38.2547 46.2357 37.6634C46.3802 37.2199 46.9581 36.4808 47.9695 35.1504C48.5474 34.4113 48.8363 33.9678 49.2698 33.5244C51.437 30.5679 52.4484 28.6462 52.1594 27.7593L52.015 27.6115C51.8705 27.4637 51.726 27.3159 51.437 27.3159C51.148 27.1681 50.7146 27.1681 50.2812 27.3159H44.7909C44.6464 27.3159 44.6464 27.3159 44.3574 27.3159C44.2129 27.3159 44.0685 27.3159 44.0685 27.3159H43.924H43.7795L43.635 27.4637C43.4905 27.6115 43.4905 27.6115 43.4905 27.7593C42.9126 29.3854 42.1902 30.7157 41.4678 32.194C41.0343 32.9331 40.6009 33.6722 40.1675 34.2635C39.734 34.8548 39.445 35.2982 39.1561 35.5939C38.8671 35.8895 38.5782 36.0373 38.4337 36.333C38.2892 36.4808 38.0002 36.6286 38.0002 36.4808C37.8558 36.4808 37.7113 36.4808 37.7113 36.333C37.5668 36.1851 37.4223 36.0373 37.2778 35.8895C37.1334 35.7417 37.1333 35.446 36.9889 35.1504C36.9889 34.8547 36.9889 34.5591 36.9889 34.4113C36.9889 34.2635 36.9889 33.82 36.9889 33.5244C36.9889 33.0809 36.9889 32.7853 36.9889 32.6374C36.9889 32.194 36.9889 31.6027 36.9889 31.0114C36.9889 30.4201 36.9889 29.9766 36.9889 29.681C36.9889 29.3854 36.9889 28.9419 36.9889 28.6463C36.9889 28.2028 36.9889 27.9071 36.9889 27.7593C36.9889 27.6115 36.8444 27.3159 36.8444 27.168C36.6999 27.0202 36.5554 26.8724 36.4109 26.7246C36.2665 26.5768 35.9775 26.5768 35.833 26.4289C35.1106 26.2811 34.2437 26.1333 33.2324 26.1333C30.9207 26.1333 29.3314 26.2811 28.7534 26.5768C28.4645 26.7246 28.1755 26.8724 28.031 27.168C27.7421 27.4637 27.7421 27.6115 27.8865 27.6115C28.6089 27.7593 29.1869 28.055 29.4758 28.4984L29.6203 28.7941C29.7648 28.9419 29.7648 29.2375 29.9093 29.681C30.0538 30.1245 30.0538 30.5679 30.0538 31.1592C30.0538 32.0461 30.0538 32.9331 30.0538 33.5244C30.0538 34.2635 29.9093 34.7069 29.9093 35.1504C29.9093 35.5939 29.7648 35.8895 29.6203 36.0373C29.4759 36.333 29.4758 36.4808 29.3314 36.4808C29.3314 36.4808 29.3313 36.6286 29.1869 36.6286C29.0424 36.6286 28.8979 36.7764 28.6089 36.7764C28.4645 36.7764 28.1755 36.6286 28.031 36.4808C27.7421 36.333 27.4531 36.0373 27.3086 35.7417C27.0197 35.446 26.7307 35.0026 26.4417 34.4113C26.1528 33.82 25.7193 33.2287 25.4303 32.3418L25.1414 31.7505C24.9969 31.4549 24.708 30.8636 24.419 30.1245C24.13 29.3854 23.8411 28.7941 23.5521 28.055C23.4076 27.7593 23.2632 27.6115 23.1187 27.4637H22.9742C22.9742 27.4637 22.8297 27.3159 22.6852 27.3159C22.5407 27.3159 22.3963 27.168 22.2518 27.168H17.0504C16.4725 27.168 16.1835 27.3159 16.0391 27.4637L15.8946 27.6115C15.8946 27.6115 15.8946 27.7593 15.8946 27.9072C15.8946 28.055 15.8946 28.2028 16.0391 28.4984C16.7615 30.2723 17.6284 32.0461 18.4952 33.82C19.3621 35.446 20.229 36.9243 20.807 37.959C21.5294 38.9938 22.1073 40.0285 22.8297 40.9154C23.5521 41.8024 23.9855 42.3936 24.13 42.6893C24.419 42.9849 24.5635 43.1327 24.7079 43.2806L25.1414 43.724C25.4304 44.0197 25.8638 44.4631 26.4417 44.9066C27.0197 45.3501 27.7421 45.7935 28.4645 46.237C29.1869 46.6804 30.0538 46.9761 30.9207 47.2718C31.932 47.5674 32.7989 47.7152 33.6658 47.5674H35.833C36.2665 47.5674 36.5554 47.4196 36.8444 47.1239L36.9889 46.9761C36.9889 46.8283 37.1333 46.8283 37.1333 46.6805C37.1333 46.5326 37.1333 46.3848 37.1333 46.0892C37.1333 45.4979 37.1334 45.0544 37.2778 44.611C37.4223 44.1675 37.4223 43.8719 37.5668 43.5762C37.7113 43.2806 37.8558 43.1327 38.0002 42.9849C38.1447 42.8371 38.2892 42.6893 38.2892 42.6893H38.4337C38.7226 42.5415 39.1561 42.6893 39.4451 42.9849C39.8785 43.2806 40.3119 43.724 40.6009 44.1675C40.8899 44.611 41.3233 45.0544 41.9013 45.6457C42.4792 46.237 42.9126 46.6805 43.2016 46.8283L43.635 47.1239C43.924 47.2717 44.213 47.4196 44.6464 47.5674C45.0798 47.7152 45.3688 47.7152 45.6577 47.7152L50.5701 47.5674C51.0036 47.5674 51.437 47.4196 51.726 47.2718C52.0149 47.1239 52.1594 46.9761 52.1594 46.6805C52.1594 46.5326 52.1594 46.237 52.1594 46.0892C51.8704 45.7935 51.8705 45.6457 51.8705 45.4979Z" fill="black"/>
<path d="M69.1104 36.3903C69.1104 55.7917 53.7407 71.5 34.8052 71.5C15.8697 71.5 0.5 55.7917 0.5 36.3903C0.5 16.9889 15.8697 1.28052 34.8052 1.28052C53.7407 1.28052 69.1104 16.9889 69.1104 36.3903Z" stroke="#E5E5E5"/>
</svg>
