<svg width="268" height="73" viewBox="0 0 268 73" fill="none" xmlns="http://www.w3.org/2000/svg">
<ellipse cx="34.8052" cy="37.3903" rx="34.8052" ry="35.6098" fill="#E5E5E5"/>
<path d="M51.8705 46.4979C51.8705 46.3501 51.726 46.3501 51.726 46.2022C51.1481 45.0197 49.8477 43.5415 48.1139 41.9154C47.2471 41.1763 46.8136 40.585 46.5246 40.2894C46.0912 39.6981 46.0912 39.2547 46.2357 38.6634C46.3802 38.2199 46.9581 37.4808 47.9695 36.1504C48.5474 35.4113 48.8363 34.9678 49.2698 34.5244C51.437 31.5679 52.4484 29.6462 52.1594 28.7593L52.015 28.6115C51.8705 28.4637 51.726 28.3159 51.437 28.3159C51.148 28.1681 50.7146 28.1681 50.2812 28.3159H44.7909C44.6464 28.3159 44.6464 28.3159 44.3574 28.3159C44.2129 28.3159 44.0685 28.3159 44.0685 28.3159H43.924H43.7795L43.635 28.4637C43.4905 28.6115 43.4905 28.6115 43.4905 28.7593C42.9126 30.3854 42.1902 31.7157 41.4678 33.194C41.0343 33.9331 40.6009 34.6722 40.1675 35.2635C39.734 35.8548 39.445 36.2982 39.1561 36.5939C38.8671 36.8895 38.5782 37.0373 38.4337 37.333C38.2892 37.4808 38.0002 37.6286 38.0002 37.4808C37.8558 37.4808 37.7113 37.4808 37.7113 37.333C37.5668 37.1851 37.4223 37.0373 37.2778 36.8895C37.1334 36.7417 37.1333 36.446 36.9889 36.1504C36.9889 35.8547 36.9889 35.5591 36.9889 35.4113C36.9889 35.2635 36.9889 34.82 36.9889 34.5244C36.9889 34.0809 36.9889 33.7853 36.9889 33.6374C36.9889 33.194 36.9889 32.6027 36.9889 32.0114C36.9889 31.4201 36.9889 30.9766 36.9889 30.681C36.9889 30.3854 36.9889 29.9419 36.9889 29.6463C36.9889 29.2028 36.9889 28.9071 36.9889 28.7593C36.9889 28.6115 36.8444 28.3159 36.8444 28.168C36.6999 28.0202 36.5554 27.8724 36.4109 27.7246C36.2665 27.5768 35.9775 27.5768 35.833 27.4289C35.1106 27.2811 34.2437 27.1333 33.2324 27.1333C30.9207 27.1333 29.3314 27.2811 28.7534 27.5768C28.4645 27.7246 28.1755 27.8724 28.031 28.168C27.7421 28.4637 27.7421 28.6115 27.8865 28.6115C28.6089 28.7593 29.1869 29.055 29.4758 29.4984L29.6203 29.7941C29.7648 29.9419 29.7648 30.2375 29.9093 30.681C30.0538 31.1245 30.0538 31.5679 30.0538 32.1592C30.0538 33.0461 30.0538 33.9331 30.0538 34.5244C30.0538 35.2635 29.9093 35.7069 29.9093 36.1504C29.9093 36.5939 29.7648 36.8895 29.6203 37.0373C29.4759 37.333 29.4758 37.4808 29.3314 37.4808C29.3314 37.4808 29.3313 37.6286 29.1869 37.6286C29.0424 37.6286 28.8979 37.7764 28.6089 37.7764C28.4645 37.7764 28.1755 37.6286 28.031 37.4808C27.7421 37.333 27.4531 37.0373 27.3086 36.7417C27.0197 36.446 26.7307 36.0026 26.4417 35.4113C26.1528 34.82 25.7193 34.2287 25.4303 33.3418L25.1414 32.7505C24.9969 32.4549 24.708 31.8636 24.419 31.1245C24.13 30.3854 23.8411 29.7941 23.5521 29.055C23.4076 28.7593 23.2632 28.6115 23.1187 28.4637H22.9742C22.9742 28.4637 22.8297 28.3159 22.6852 28.3159C22.5407 28.3159 22.3963 28.168 22.2518 28.168H17.0504C16.4725 28.168 16.1835 28.3159 16.0391 28.4637L15.8946 28.6115C15.8946 28.6115 15.8946 28.7593 15.8946 28.9072C15.8946 29.055 15.8946 29.2028 16.0391 29.4984C16.7615 31.2723 17.6284 33.0461 18.4952 34.82C19.3621 36.446 20.229 37.9243 20.807 38.959C21.5294 39.9938 22.1073 41.0285 22.8297 41.9154C23.5521 42.8024 23.9855 43.3936 24.13 43.6893C24.419 43.9849 24.5635 44.1327 24.7079 44.2806L25.1414 44.724C25.4304 45.0197 25.8638 45.4631 26.4417 45.9066C27.0197 46.3501 27.7421 46.7935 28.4645 47.237C29.1869 47.6804 30.0538 47.9761 30.9207 48.2718C31.932 48.5674 32.7989 48.7152 33.6658 48.5674H35.833C36.2665 48.5674 36.5554 48.4196 36.8444 48.1239L36.9889 47.9761C36.9889 47.8283 37.1333 47.8283 37.1333 47.6805C37.1333 47.5326 37.1333 47.3848 37.1333 47.0892C37.1333 46.4979 37.1334 46.0544 37.2778 45.611C37.4223 45.1675 37.4223 44.8719 37.5668 44.5762C37.7113 44.2806 37.8558 44.1327 38.0002 43.9849C38.1447 43.8371 38.2892 43.6893 38.2892 43.6893H38.4337C38.7226 43.5415 39.1561 43.6893 39.4451 43.9849C39.8785 44.2806 40.3119 44.724 40.6009 45.1675C40.8899 45.611 41.3233 46.0544 41.9013 46.6457C42.4792 47.237 42.9126 47.6805 43.2016 47.8283L43.635 48.1239C43.924 48.2717 44.213 48.4196 44.6464 48.5674C45.0798 48.7152 45.3688 48.7152 45.6577 48.7152L50.5701 48.5674C51.0036 48.5674 51.437 48.4196 51.726 48.2718C52.0149 48.1239 52.1594 47.9761 52.1594 47.6805C52.1594 47.5326 52.1594 47.237 52.1594 47.0892C51.8704 46.7935 51.8705 46.6457 51.8705 46.4979Z" fill="black"/>
<path d="M69.1104 37.3903C69.1104 56.7917 53.7407 72.5 34.8052 72.5C15.8697 72.5 0.5 56.7917 0.5 37.3903C0.5 17.9889 15.8697 2.28052 34.8052 2.28052C53.7407 2.28052 69.1104 17.9889 69.1104 37.3903Z" stroke="#488AEA"/>
<ellipse cx="134" cy="35.6098" rx="34.8052" ry="35.6098" fill="#E5E5E5"/>
<path d="M115.467 36.2758L123.469 39.3285L126.589 49.5967C126.724 50.2905 127.538 50.4293 128.081 50.013L132.556 46.2665C132.963 45.8502 133.641 45.8502 134.184 46.2665L142.186 52.2332C142.728 52.6494 143.542 52.3719 143.677 51.6781L149.645 22.5386C149.781 21.8448 149.102 21.151 148.424 21.4285L115.467 34.4719C114.654 34.7494 114.654 35.9983 115.467 36.2758ZM126.182 37.8021L141.914 27.9502C142.186 27.8114 142.457 28.2277 142.186 28.3665L129.301 40.7161C128.894 41.1324 128.487 41.6874 128.487 42.3812L128.081 45.7115C128.081 46.1277 127.402 46.2665 127.267 45.7115L125.639 39.606C125.232 38.9122 125.504 38.0797 126.182 37.8021Z" fill="black"/>
<path d="M168.305 35.6098C168.305 55.0112 152.936 70.7195 134 70.7195C115.064 70.7195 99.6948 55.0112 99.6948 35.6098C99.6948 16.2083 115.064 0.5 134 0.5C152.936 0.5 168.305 16.2083 168.305 35.6098Z" stroke="#488AEA"/>
<ellipse cx="233.195" cy="37.3903" rx="34.8052" ry="35.6098" fill="url(#paint0_linear_772_1756)"/>
<path d="M244.647 23.1464H223.483C221.093 23.1464 219.273 25.009 219.273 27.4538V49.1072C219.273 51.552 221.093 53.4147 223.483 53.4147H244.647C247.037 53.4147 248.857 51.552 248.857 49.1072V27.4538C248.857 25.009 247.037 23.1464 244.647 23.1464ZM234.065 47.361C238.958 47.361 242.94 43.4028 242.94 38.6298C242.94 37.8148 242.826 36.8835 242.599 36.185H245.102V48.5252C245.102 49.1072 244.647 49.6893 243.964 49.6893H224.166C223.597 49.6893 223.028 49.2237 223.028 48.5252V36.0686H225.645C225.417 36.8835 225.303 37.6984 225.303 38.5133C225.19 43.4028 229.172 47.361 234.065 47.361ZM234.065 43.8685C230.879 43.8685 228.376 41.3073 228.376 38.1641C228.376 35.0208 230.879 32.4597 234.065 32.4597C237.251 32.4597 239.754 35.0208 239.754 38.1641C239.754 41.4238 237.251 43.8685 234.065 43.8685ZM244.988 31.4119C244.988 32.1104 244.419 32.6925 243.737 32.6925H240.551C239.868 32.6925 239.299 32.1104 239.299 31.4119V28.2687C239.299 27.5702 239.868 26.9881 240.551 26.9881H243.737C244.419 26.9881 244.988 27.5702 244.988 28.2687V31.4119Z" fill="black"/>
<path d="M267.5 37.3903C267.5 56.7917 252.13 72.5 233.195 72.5C214.259 72.5 198.89 56.7917 198.89 37.3903C198.89 17.9889 214.259 2.28052 233.195 2.28052C252.13 2.28052 267.5 17.9889 267.5 37.3903Z" stroke="#488AEA"/>
<defs>
<linearGradient id="paint0_linear_772_1756" x1="213.182" y1="64.9878" x2="260.392" y2="17.1027" gradientUnits="userSpaceOnUse">
<stop stop-color="#E5E5E5"/>
</linearGradient>
</defs>
</svg>
