<svg width="70" height="72" viewBox="0 0 70 72" fill="none" xmlns="http://www.w3.org/2000/svg">
<ellipse cx="35" cy="35.6098" rx="34.8052" ry="35.6098" fill="#E5E5E5"/>
<path d="M16.4675 36.2758L24.4693 39.3285L27.5887 49.5967C27.7243 50.2905 28.5381 50.4293 29.0806 50.013L33.5562 46.2665C33.963 45.8502 34.6412 45.8502 35.1837 46.2665L43.1855 52.2332C43.728 52.6494 44.5418 52.3719 44.6774 51.6781L50.6449 22.5386C50.7805 21.8448 50.1024 21.151 49.4243 21.4285L16.4675 34.4719C15.6537 34.7494 15.6537 35.9983 16.4675 36.2758ZM27.1818 37.8021L42.9143 27.9502C43.1855 27.8114 43.4568 28.2277 43.1855 28.3665L30.3012 40.7161C29.8943 41.1324 29.4874 41.6874 29.4874 42.3812L29.0806 45.7115C29.0806 46.1277 28.4024 46.2665 28.2668 45.7115L26.6393 39.606C26.2324 38.9122 26.5037 38.0797 27.1818 37.8021Z" fill="black"/>
<path d="M69.3052 35.6098C69.3052 55.0112 53.9355 70.7195 35 70.7195C16.0645 70.7195 0.694809 55.0112 0.694809 35.6098C0.694809 16.2083 16.0645 0.5 35 0.5C53.9355 0.5 69.3052 16.2083 69.3052 35.6098Z" stroke="#E5E5E5"/>
</svg>
