<svg width="70" height="72" viewBox="0 0 70 72" fill="none" xmlns="http://www.w3.org/2000/svg">
<ellipse cx="35.1948" cy="36.3903" rx="34.8052" ry="35.6098" fill="url(#paint0_linear_772_1767)"/>
<path d="M46.6471 22.1464H25.4828C23.0933 22.1464 21.2727 24.009 21.2727 26.4538V48.1072C21.2727 50.552 23.0933 52.4147 25.4828 52.4147H46.6471C49.0366 52.4147 50.8571 50.552 50.8571 48.1072V26.4538C50.8571 24.009 49.0366 22.1464 46.6471 22.1464ZM36.0649 46.361C40.9577 46.361 44.9403 42.4028 44.9403 37.6298C44.9403 36.8148 44.8265 35.8835 44.5989 35.185H47.1022V47.5252C47.1022 48.1072 46.6471 48.6893 45.9643 48.6893H26.1655C25.5966 48.6893 25.0277 48.2237 25.0277 47.5252V35.0686H27.6448C27.4172 35.8835 27.3034 36.6984 27.3034 37.5133C27.1896 42.4028 31.1721 46.361 36.0649 46.361ZM36.0649 42.8685C32.8789 42.8685 30.3756 40.3073 30.3756 37.1641C30.3756 34.0208 32.8789 31.4597 36.0649 31.4597C39.251 31.4597 41.7543 34.0208 41.7543 37.1641C41.7543 40.4238 39.251 42.8685 36.0649 42.8685ZM46.9884 30.4119C46.9884 31.1104 46.4195 31.6925 45.7368 31.6925H42.5508C41.868 31.6925 41.2991 31.1104 41.2991 30.4119V27.2687C41.2991 26.5702 41.868 25.9881 42.5508 25.9881H45.7368C46.4195 25.9881 46.9884 26.5702 46.9884 27.2687V30.4119Z" fill="black"/>
<path d="M69.5 36.3903C69.5 55.7917 54.1303 71.5 35.1948 71.5C16.2593 71.5 0.889618 55.7917 0.889618 36.3903C0.889618 16.9889 16.2593 1.28052 35.1948 1.28052C54.1303 1.28052 69.5 16.9889 69.5 36.3903Z" stroke="#E5E5E5"/>
<defs>
<linearGradient id="paint0_linear_772_1767" x1="15.1818" y1="63.9878" x2="62.3924" y2="16.1027" gradientUnits="userSpaceOnUse">
<stop stop-color="#E5E5E5"/>
</linearGradient>
</defs>
</svg>
